<svg xmlns="http://www.w3.org/2000/svg" width="40" height="40" viewBox="0 0 40 40" fill="none">
  <path d="M19.8698 0.00056842C19.3572 0.00595808 18.8385 0.0488188 18.3171 0.133296C12.5653 1.06523 8.63651 6.59731 9.54752 12.4813C9.86238 14.5149 10.7223 16.3192 11.9404 17.7795C12.4482 18.51 13.3309 18.9257 14.2546 18.7761C15.5534 18.5656 16.4405 17.3174 16.2348 15.9888C16.0291 14.6601 14.8089 13.7526 13.5101 13.9631C12.7886 14.08 12.1953 14.5184 11.8447 15.1119C11.4265 14.3833 11.1244 13.5682 10.9875 12.6837C10.3998 8.88754 12.9344 5.31908 16.6453 4.71783C19.4631 4.26128 22.1523 5.64598 23.541 8.00121C24.4647 7.40859 25.4706 6.95305 26.5273 6.66523C27.5135 6.37373 28.5306 6.24536 29.5455 6.26269C27.8264 2.45774 24.0442 -0.0433188 19.8698 0.00056842ZM29.335 6.97638C28.7809 6.98195 28.2236 7.03386 27.6695 7.13086C26.6467 7.30993 25.6306 7.64641 24.6577 8.15352C22.8643 9.08828 21.453 10.4816 20.4718 12.1179C19.9496 12.8377 19.8367 13.8266 20.2612 14.6789C20.8582 15.8775 22.2928 16.3558 23.4645 15.7451C24.6361 15.1344 25.1037 13.6647 24.5067 12.4661C24.175 11.8002 23.5844 11.3596 22.9242 11.2019C23.4724 10.5699 24.135 10.0244 24.9151 9.61787C28.2627 7.87298 32.364 9.23519 34.0697 12.6597C35.3647 15.2597 34.9086 18.3051 33.1487 20.384C33.9851 21.0996 34.7198 21.9384 35.314 22.8776C35.8894 23.7464 36.3224 24.6945 36.6199 25.6866C39.9962 22.4885 41.0404 17.2704 38.849 12.8708C36.9694 9.09711 33.2137 6.93734 29.335 6.97638ZM9.29866 7.14174C9.12288 7.16321 8.94679 7.18971 8.77329 7.22007C4.43777 7.97876 0.857256 11.4828 0.131299 16.1716C-0.779704 22.0555 3.14693 27.5876 8.89878 28.5196C10.8868 28.8417 12.8331 28.5658 14.5672 27.832C15.4033 27.5637 16.0609 26.8316 16.2071 25.8868C16.4129 24.5581 15.5278 23.3099 14.229 23.0995C12.9302 22.8891 11.7079 23.7966 11.5022 25.1252C11.388 25.8633 11.6139 26.5742 12.0574 27.0987C11.2507 27.2804 10.3994 27.3215 9.53476 27.1814C5.82388 26.5802 3.28707 23.0117 3.87482 19.2156C4.32116 16.3327 6.44124 14.1444 9.06044 13.5214C8.79528 12.4402 8.68246 11.3195 8.74139 10.2032C8.77513 9.15341 8.96877 8.12403 9.29866 7.14174ZM27.5313 18.5454C27.4366 18.5486 27.3423 18.559 27.2484 18.5737C26.7653 18.6494 26.2995 18.8743 25.9275 19.2548C24.9977 20.206 24.9977 21.7523 25.9275 22.7035C26.8574 23.6547 28.3647 23.6525 29.2946 22.7013C29.8111 22.1729 30.0389 21.4624 29.9816 20.7713C30.7385 21.1094 31.4513 21.5894 32.0703 22.2226C34.727 24.9403 34.7291 29.3507 32.0724 32.0684C30.0554 34.1317 27.0832 34.6285 24.6067 33.5589C24.1999 34.5934 23.6476 35.5651 22.9582 36.4332C22.3281 37.2617 21.5769 37.9781 20.7462 38.5742C24.7629 40.8714 29.9394 40.2754 33.3529 36.7835C37.4707 32.571 37.4707 25.7323 33.3529 21.5198C31.9296 20.0639 30.196 19.1206 28.3714 18.6716C28.0989 18.5779 27.8152 18.5359 27.5313 18.5454ZM22.2797 25.9172C21.4345 25.9404 20.6291 26.4248 20.2187 27.2489C19.6217 28.4474 20.0871 29.915 21.2588 30.5257C21.9097 30.865 22.6419 30.8669 23.2667 30.5975C23.1863 31.4384 22.9622 32.2779 22.5647 33.0758C20.859 36.5003 16.7578 37.8647 13.4101 36.1198C10.8677 34.7947 9.48736 32.0568 9.71768 29.3159C8.6301 29.2399 7.55581 29.0047 6.53569 28.6022C5.57026 28.2451 4.67114 27.7362 3.85993 27.1118C2.96554 31.7295 5.12087 36.5804 9.42202 38.8223C14.6108 41.5268 20.9674 39.4152 23.6112 34.1072C24.525 32.2726 24.8679 30.2963 24.7215 28.3825C24.7304 27.4862 24.2551 26.617 23.4219 26.1827C23.0558 25.9918 22.6639 25.9067 22.2797 25.9172Z" fill="white"/>
</svg>